<?xml version="1.0" encoding="utf-8"?>
<!-- Generator: Adobe Illustrator 23.0.1, SVG Export Plug-In . SVG Version: 6.00 Build 0)  -->
<svg version="1.1" id="Ebene_1" xmlns="http://www.w3.org/2000/svg" xmlns:xlink="http://www.w3.org/1999/xlink" x="0px" y="0px"
	 viewBox="0 0 114 61" style="enable-background:new 0 0 114 61;" xml:space="preserve">
<style type="text/css">
	.st0{fill:#1D1D1B;}
	.st1{fill:#0069B3;}
</style>
<path class="st0" d="M102.873,28.892v-1.551h4.576c0,0,0.249,0,0.388,0.219c0.133,0.221,0.147,0.388,0.147,0.569
	c0,0.182-0.037,0.409-0.147,0.57c-0.116,0.165-0.346,0.193-0.346,0.193H102.873z M97.213,37.163h5.663v-5.065h2.078l3.047,5.065
	h6.239l-3.396-5.567c0,0,1.236-0.136,2.013-0.941c0.78-0.802,1.066-1.82,1.108-2.976c0.043-1.157-0.476-2.313-1.034-2.815
	c-0.556-0.502-1.256-0.953-2.903-1.029H97.213V37.163z M78.583,37.144H94.1v-3.666h-9.83v-1.454h7.52v-3.271h-7.52v-1.44h9.83
	v-3.478H78.583V37.144z M59.52,37.183h5.355v-3.861l1.82-1.448l3.486,5.309h6.733l-5.879-8.6l5.326-4.748h-7.209l-4.277,4.32v-4.32
	H59.52V37.183z M40.262,23.835v8.263c-0.009,1.139,0.238,1.919,0.499,2.426c0.13,0.256,0.263,0.443,0.371,0.57l0.215,0.221
	c0.094,0.099,0.72,0.76,2.155,1.259c1.814,0.626,3.024,0.731,4.753,0.76c2.058,0.034,4.023-0.57,4.023-0.57
	c1.57-0.425,2.469-1.361,2.469-1.361c1.219-1.114,1.216-3.05,1.216-3.05v-8.518h-5.386c0,0,0.037,7.608,0,8.263
	c-0.02,0.329-0.099,0.53-0.184,0.66l-0.207,0.244c-0.074,0.105-0.612,0.564-1.814,0.564c-1.199,0-1.602-0.286-1.993-0.584
	c-0.388-0.297-0.394-1.04-0.394-1.04v-8.107C45.985,23.835,40.262,23.835,40.262,23.835z M26.59,28.889v-1.584h4.575
	c0,0,0.253,0,0.389,0.223c0.136,0.227,0.147,0.397,0.147,0.584c0,0.185-0.037,0.417-0.147,0.582
	c-0.117,0.167-0.346,0.195-0.346,0.195H26.59z M20.929,37.163h5.664v-5.065h2.078l3.047,5.065h6.236l-3.39-5.567
	c0,0,1.23-0.136,2.01-0.941c0.779-0.802,1.066-1.82,1.108-2.976c0.043-1.157-0.476-2.313-1.034-2.815
	c-0.556-0.502-1.256-0.953-2.9-1.029H20.929V37.163z M11.986,31.888c0,0,0.261-0.023,0.425,0.213
	c0.08,0.119,0.114,0.249,0.139,0.357v0.232c0,0.077-0.014,0.397-0.178,0.624c-0.097,0.128-0.227,0.159-0.275,0.159H6.6v-1.585
	H11.986z M11.127,27.305c0,0,0.241-0.026,0.397,0.204c0.159,0.232,0.176,0.518,0.176,0.626s-0.006,0.397-0.165,0.598
	c-0.136,0.173-0.249,0.19-0.317,0.19H6.6v-1.618H11.127z M0.849,37.163h13.564c1.465,0,2.333-0.714,2.511-0.924l0.258-0.309
	c0.119-0.156,0.258-0.365,0.391-0.629c0.264-0.524,0.499-1.261,0.465-2.219c-0.034-0.956-0.19-1.542-0.371-1.931
	c-0.091-0.193-0.19-0.337-0.281-0.453l-0.244-0.29c-0.45-0.538-1.459-0.926-1.459-0.926c0.629-0.23,1.046-0.638,1.046-0.638
	c0.487-0.505,0.827-1.375,0.79-2.228c-0.036-0.856-0.192-1.511-0.748-2.143c-0.558-0.632-1.857-0.635-1.857-0.635H0.849V37.163z"/>
<path class="st1" d="M56.32,12.322l-0.933,0.601c-4.07,2.662-8.509,5.945-13.382,9.978l0.76,0.017h1.701l2.485-0.017
	c2.104-2.043,6.523-5.42,11.526-8.54l0.621-0.38l1.244,0.771c4.113,2.593,8.014,5.388,11.396,8.149l1.428,0.023h1.267l0.097-0.023
	c-1.111-0.725-2.302-1.638-3.702-2.715l-2.274-1.738l-2.678-1.973c-1.457-1.04-3.104-2.163-4.995-3.353l-0.17-0.108l1.171-0.68
	c2.877-1.627,5.816-3.067,8.518-4.048c8.951-3.903,20.999-5.97,24.525-1.953c4.133,4.708-3.061,14.159-4.938,16.568h2.222
	c2.41-3.673,5.758-8.858,5.588-13.563c-0.04-1.052-0.346-7.577-10.027-7.577c-7.37,0-16.285,1.394-28.984,9.025l-0.87,0.536
	l-1.154-0.681c-2.236-1.284-4.753-2.633-7.602-4.039c-1.471-0.706-2.954-1.352-4.431-1.933l-1.865-0.692l0.011-0.249
	c0-1.897-1.533-3.43-3.43-3.43c-1.301,0-2.432,0.726-3.013,1.794l-0.003,0.006l-0.354-0.085c-6.931-1.497-12.866-1.134-15.69,1.641
	c-5.661,5.684,4.402,19.247,4.402,19.247h3.51c-0.057-0.147-0.275-0.462-0.604-0.91l-1.262-1.709
	c-0.994-1.361-2.23-3.109-3.31-4.969c-2.16-3.716-3.691-7.869-1.395-10.205c2.849-2.795,7.821-3.055,13.748-1.684l0.553,0.139
	l-0.009,0.165c0,1.893,1.534,3.43,3.427,3.43c1.185,0,2.228-0.601,2.846-1.514l0.054-0.088l1.695,0.666
	c3.578,1.457,7.277,3.28,10.917,5.321L56.32,12.322z"/>
<path class="st1" d="M57.916,49.769l0.87,0.536C71.485,57.936,80.4,59.33,87.77,59.33c9.681,0,9.987-6.525,10.027-7.577
	c0.17-4.705-3.178-9.893-5.588-13.575h-2.222c1.877,2.421,9.071,11.872,4.938,16.58c-3.526,4.017-15.574,1.95-24.525-1.953
	c-2.702-0.981-5.641-2.421-8.518-4.048l-1.171-0.68l0.17-0.105c1.891-1.193,3.538-2.313,4.995-3.353l2.678-1.968l2.274-1.74
	c1.4-1.08,2.591-1.993,3.702-2.721l-0.097-0.017h-1.267l-1.428,0.017c-3.382,2.761-7.283,5.555-11.396,8.149l-1.241,0.771
	l-0.624-0.38c-5.003-3.123-9.422-6.502-11.526-8.552h-4.186l-0.76,0.012c4.873,4.033,9.312,7.316,13.382,9.978l0.933,0.6
	l-1.363,0.78c-3.64,2.041-7.339,3.864-10.917,5.321l-1.698,0.666l-0.051-0.088c-0.618-0.913-1.661-1.511-2.846-1.511
	c-1.893,0-3.427,1.534-3.427,3.427l0.009,0.165l-0.553,0.138c-5.927,1.372-10.899,1.112-13.748-1.683
	c-2.296-2.333-0.765-6.486,1.395-10.202c1.08-1.857,2.316-3.606,3.31-4.964l1.262-1.709c0.329-0.451,0.547-0.768,0.604-0.918h-3.51
	c0,0-10.063,13.563-4.402,19.247c2.824,2.775,8.759,3.138,15.69,1.641l0.354-0.085l0.003,0.006c0.581,1.068,1.712,1.794,3.013,1.794
	c1.897,0,3.43-1.536,3.43-3.43l-0.011-0.249l1.865-0.692c1.477-0.581,2.96-1.227,4.431-1.933c2.849-1.406,5.366-2.755,7.602-4.04
	L57.916,49.769z"/>
</svg>
